<?xml version="1.0" encoding="UTF-8"?>
<!DOCTYPE svg PUBLIC "-//W3C//DTD SVG 1.1//EN" "http://www.w3.org/Graphics/SVG/1.1/DTD/svg11.dtd">
<svg version="1.1" xmlns="http://www.w3.org/2000/svg" xmlns:xlink="http://www.w3.org/1999/xlink" width="512" height="512"  xml:space="preserve" id="toolbaricon">
    <!-- Generated by PaintCode - http://www.paintcodeapp.com -->
    <path id="toolbaricon-bezier" stroke="none" fill="rgb(0, 0, 0)" d="M 256,512 C 396.05,512 512,395.8 512,256 512,115.95 395.8,-0 255.75,-0 115.95,-0 0,115.95 0,256 0,395.8 116.2,512 256,512 Z M 256,469.33 C 137.54,469.33 42.92,374.46 42.92,256 42.92,137.54 137.29,42.67 255.75,42.67 374.21,42.67 469.33,137.54 469.33,256 469.33,374.46 374.46,469.33 256,469.33 Z M 256,469.33" />
    <path id="toolbaricon-text" stroke="none" fill="rgb(0, 0, 0)" d="M 138.1,58.7 C 138.1,72.2 136.3,86.9 133.6,103.1 133,106.4 130.3,109.1 127,109.1 116.5,110 107.2,110.6 100.3,110.9 92.2,111.2 84.4,111.5 76.3,111.2 71.2,111.2 67.9,114.5 68.2,119.6 L 70.6,148.4 C 70.9,153.5 74.5,156.2 79.6,155.3 88.3,153.8 99.1,152.3 106,151.7 108.1,151.4 111.4,150.8 114.7,150.5 L 115.3,150.5 C 120.1,149.6 122.8,152.6 121.3,157.7 111.4,192.2 95.5,235.7 73.6,268.4 70.3,273.5 71.5,278 76.9,280.1 L 106.9,292.1 C 110.5,293.6 114.1,292.4 116.2,289.1 137.5,251 156.7,191 167.8,149.3 168.7,146 171.4,143.9 174.7,143.6 177.7,143.3 180.4,143.3 182.2,143.3 199.9,143.3 208.6,146 208.6,166.4 208.6,192.5 205,224.9 198.1,238.7 194.2,246.5 187.6,249.5 178.9,249.5 174.1,249.5 164.5,248 155.8,246.5 148.9,245 145.3,248.3 146.2,255.2 L 151,283.7 C 151.6,286.7 154,289.1 157,289.7 166,291.5 177.1,292.7 186.1,292.7 209.2,292.7 225.7,285.5 235.3,265.4 247.3,240.2 250.9,194.9 250.9,161.9 250.9,119.6 229.6,104.3 197.2,104.3 194.5,104.3 191.2,104.3 187.6,104.6 181.9,104.9 178.9,101.6 180.1,95.9 181.3,91.4 182.2,86.9 182.8,82.4 L 187,63.5 C 188.2,58.7 185.5,55.1 180.4,54.5 L 146.8,50.9 C 141.4,50.3 138.4,53.6 138.1,58.7 Z M 250.6,104.6 C 267.1,129.5 281.8,168.8 289,197.9 290.5,203.6 294.7,205.7 299.8,203.3 L 328.9,189.5 C 332.5,188 334,184.4 332.8,180.5 323.8,153.8 304.9,109.7 289.6,84.5 287.8,81.5 283.9,80.3 280.6,81.8 L 253.9,92.6 C 248.5,95 247.3,99.5 250.6,104.6 Z M 250.6,104.6" />
    <path id="toolbaricon-text2" stroke="none" fill="rgb(0, 0, 0)" d="M 338.1,230.9 C 333.9,231.8 329.4,233 324.9,233.9 317.7,235.4 314.4,231.8 316.2,224.6 317.4,219.5 318.6,215 319.5,210.8 320.7,205.7 318.3,202.1 312.9,201.5 L 282.6,198.8 C 277.8,198.2 274.8,201.2 274.2,205.7 273.6,215.9 271.8,226.7 269.4,236.9 268.8,239.9 266.1,242.3 263.1,242.3 257.4,242.6 252,242.9 246.3,242.9 239.1,242.9 227.4,242.3 216.6,240.8 210.9,240.2 207.3,243.5 207.9,249.2 L 209.7,273.8 C 210,277.7 212.7,280.4 216.6,280.7 227.1,281.3 236.7,281.3 246.6,281.3 L 251.4,281.3 C 254.1,281.3 255.3,282.8 254.1,285.2 242.7,311 225,343.1 206.1,368.9 202.8,373.1 203.7,377.9 208.8,380.3 L 236.1,393.8 C 239.4,395.6 243.3,394.7 245.4,391.4 266.1,360.2 286.8,317.6 299.4,281.3 300.3,278.9 302.7,276.8 305.4,276.5 319.5,274.1 332.7,271.4 342.9,269 346.2,268.1 348.6,265.1 348.3,261.5 L 347.7,237.8 C 347.4,232.1 343.8,229.4 338.1,230.9 Z M 450.3,268.1 C 434.7,258.2 408.3,244.1 390.3,236 387,234.2 383.1,235.4 381.3,238.7 L 367.5,259.7 C 364.5,264.2 366,268.7 370.8,270.8 387.9,279.2 410.4,292.4 425.7,303.2 429.9,305.9 434.1,305.3 436.8,301.4 L 452.1,278 C 454.8,274.4 453.9,270.2 450.3,268.1 Z M 345.6,296.6 C 346.5,309.2 347.1,324.8 348,339.2 348,343.7 345.3,346.4 341.1,346.1 338.7,345.8 336,345.8 333.6,345.8 290.1,345.8 267.6,370.1 267.6,398.3 267.6,431 296.7,448.4 334.2,448.4 368.4,448.4 384.6,434.6 389.7,414.5 391.8,406.7 396,404.3 402.6,409.4 408.6,414.5 414,419.3 419.1,423.8 423,427.4 427.5,426.8 430.5,422 L 444.9,398.3 C 447,395.3 446.4,391.4 443.7,389 430.8,377.9 414.3,366.5 394.2,358.1 391.5,356.9 389.7,354.2 389.4,351.5 388.8,342.2 388.5,333.8 388.2,328.4 387.9,317.3 387.6,306.8 387.9,296.9 387.9,292.1 384.9,288.8 380.1,288.8 L 353.1,288.8 C 348.6,288.8 345.6,292.1 345.6,296.6 Z M 349.8,387.2 C 348.9,401 343.5,409.4 327.9,409.4 315.9,409.4 308.1,403.1 308.1,393.8 308.1,386 316.8,380.3 330.6,380.3 336,380.3 341.1,381.2 346.2,382.4 348.3,382.7 349.8,385.1 349.8,387.2 Z M 349.8,387.2" />
</svg>
