<?xml version="1.0" encoding="UTF-8"?>
<!DOCTYPE svg PUBLIC "-//W3C//DTD SVG 1.1//EN" "http://www.w3.org/Graphics/SVG/1.1/DTD/svg11.dtd">
<svg version="1.1" xmlns="http://www.w3.org/2000/svg" xmlns:xlink="http://www.w3.org/1999/xlink" width="512" height="512"  xml:space="preserve" id="toolbaricon_off">
    <!-- Generated by PaintCode - http://www.paintcodeapp.com -->
    <path id="toolbaricon_off-bezier" stroke="none" fill="rgb(0, 0, 0)" d="M 256,512 C 396.05,512 512,395.8 512,256 512,115.95 395.8,-0 255.75,-0 115.95,-0 0,115.95 0,256 0,395.8 116.2,512 256,512 Z M 256,469.33 C 137.54,469.33 42.92,374.46 42.92,256 42.92,137.54 137.29,42.67 255.75,42.67 374.21,42.67 469.33,137.54 469.33,256 469.33,374.46 374.46,469.33 256,469.33 Z M 256,469.33" />
    <path id="toolbaricon_off-text" stroke="none" fill="rgb(0, 0, 0)" d="M 128.1,53.7 C 128.1,67.2 126.3,81.9 123.6,98.1 123,101.4 120.3,104.1 117,104.1 106.5,105 97.2,105.6 90.3,105.9 82.2,106.2 74.4,106.5 66.3,106.2 61.2,106.2 57.9,109.5 58.2,114.6 L 60.6,143.4 C 60.9,148.5 64.5,151.2 69.6,150.3 78.3,148.8 89.1,147.3 96,146.7 98.1,146.4 101.4,145.8 104.7,145.5 L 105.3,145.5 C 110.1,144.6 112.8,147.6 111.3,152.7 101.4,187.2 85.5,230.7 63.6,263.4 60.3,268.5 61.5,273 66.9,275.1 L 96.9,287.1 C 100.5,288.6 104.1,287.4 106.2,284.1 127.5,246 146.7,186 157.8,144.3 158.7,141 161.4,138.9 164.7,138.6 167.7,138.3 170.4,138.3 172.2,138.3 189.9,138.3 198.6,141 198.6,161.4 198.6,187.5 195,219.9 188.1,233.7 184.2,241.5 177.6,244.5 168.9,244.5 164.1,244.5 154.5,243 145.8,241.5 138.9,240 135.3,243.3 136.2,250.2 L 141,278.7 C 141.6,281.7 144,284.1 147,284.7 156,286.5 167.1,287.7 176.1,287.7 199.2,287.7 215.7,280.5 225.3,260.4 237.3,235.2 240.9,189.9 240.9,156.9 240.9,114.6 219.6,99.3 187.2,99.3 184.5,99.3 181.2,99.3 177.6,99.6 171.9,99.9 168.9,96.6 170.1,90.9 171.3,86.4 172.2,81.9 172.8,77.4 L 177,58.5 C 178.2,53.7 175.5,50.1 170.4,49.5 L 136.8,45.9 C 131.4,45.3 128.4,48.6 128.1,53.7 Z M 240.6,99.6 C 257.1,124.5 271.8,163.8 279,192.9 280.5,198.6 284.7,200.7 289.8,198.3 L 318.9,184.5 C 322.5,183 324,179.4 322.8,175.5 313.8,148.8 294.9,104.7 279.6,79.5 277.8,76.5 273.9,75.3 270.6,76.8 L 243.9,87.6 C 238.5,90 237.3,94.5 240.6,99.6 Z M 240.6,99.6" />
    <path id="toolbaricon_off-text2" stroke="none" fill="rgb(0, 0, 0)" d="M 348.1,225.9 C 343.9,226.8 339.4,228 334.9,228.9 327.7,230.4 324.4,226.8 326.2,219.6 327.4,214.5 328.6,210 329.5,205.8 330.7,200.7 328.3,197.1 322.9,196.5 L 292.6,193.8 C 287.8,193.2 284.8,196.2 284.2,200.7 283.6,210.9 281.8,221.7 279.4,231.9 278.8,234.9 276.1,237.3 273.1,237.3 267.4,237.6 262,237.9 256.3,237.9 249.1,237.9 237.4,237.3 226.6,235.8 220.9,235.2 217.3,238.5 217.9,244.2 L 219.7,268.8 C 220,272.7 222.7,275.4 226.6,275.7 237.1,276.3 246.7,276.3 256.6,276.3 L 261.4,276.3 C 264.1,276.3 265.3,277.8 264.1,280.2 252.7,306 235,338.1 216.1,363.9 212.8,368.1 213.7,372.9 218.8,375.3 L 246.1,388.8 C 249.4,390.6 253.3,389.7 255.4,386.4 276.1,355.2 296.8,312.6 309.4,276.3 310.3,273.9 312.7,271.8 315.4,271.5 329.5,269.1 342.7,266.4 352.9,264 356.2,263.1 358.6,260.1 358.3,256.5 L 357.7,232.8 C 357.4,227.1 353.8,224.4 348.1,225.9 Z M 460.3,263.1 C 444.7,253.2 418.3,239.1 400.3,231 397,229.2 393.1,230.4 391.3,233.7 L 377.5,254.7 C 374.5,259.2 376,263.7 380.8,265.8 397.9,274.2 420.4,287.4 435.7,298.2 439.9,300.9 444.1,300.3 446.8,296.4 L 462.1,273 C 464.8,269.4 463.9,265.2 460.3,263.1 Z M 355.6,291.6 C 356.5,304.2 357.1,319.8 358,334.2 358,338.7 355.3,341.4 351.1,341.1 348.7,340.8 346,340.8 343.6,340.8 300.1,340.8 277.6,365.1 277.6,393.3 277.6,426 306.7,443.4 344.2,443.4 378.4,443.4 394.6,429.6 399.7,409.5 401.8,401.7 406,399.3 412.6,404.4 418.6,409.5 424,414.3 429.1,418.8 433,422.4 437.5,421.8 440.5,417 L 454.9,393.3 C 457,390.3 456.4,386.4 453.7,384 440.8,372.9 424.3,361.5 404.2,353.1 401.5,351.9 399.7,349.2 399.4,346.5 398.8,337.2 398.5,328.8 398.2,323.4 397.9,312.3 397.6,301.8 397.9,291.9 397.9,287.1 394.9,283.8 390.1,283.8 L 363.1,283.8 C 358.6,283.8 355.6,287.1 355.6,291.6 Z M 359.8,382.2 C 358.9,396 353.5,404.4 337.9,404.4 325.9,404.4 318.1,398.1 318.1,388.8 318.1,381 326.8,375.3 340.6,375.3 346,375.3 351.1,376.2 356.2,377.4 358.3,377.7 359.8,380.1 359.8,382.2 Z M 359.8,382.2" />
</svg>
